
      <svg
        viewBox="0 0 512 530"
        xmlns="http://www.w3.org/2000/svg"
      >
        <path
          d="M282.667 511H229.333C149.931 511 85.3333 446.403 85.3333 367V249.667C85.3333 170.264 149.931 105.667 229.333 105.667H282.667C362.069 105.667 426.667 170.264 426.667 249.667V367C426.667 446.403 362.069 511 282.667 511ZM229.333 137.667C167.573 137.667 117.333 187.907 117.333 249.667V367C117.333 428.76 167.573 479 229.333 479H282.667C344.427 479 394.667 428.76 394.667 367V249.667C394.667 187.907 344.427 137.667 282.667 137.667H229.333Z"
        />
        <path
          d="M340.693 151.533C338.176 151.533 335.616 150.936 333.227 149.677C325.419 145.539 322.432 135.875 326.549 128.045C329.216 123.032 330.667 116.973 330.667 111C330.667 90.4133 313.92 73.6666 293.333 73.6666H218.667C208.64 73.6666 199.232 77.528 192.213 84.5467C185.195 91.5653 181.333 100.973 181.333 111C181.333 116.973 182.784 123.032 185.451 128.045C189.568 135.853 186.603 145.539 178.773 149.677C170.965 153.816 161.301 150.808 157.163 143C152.043 133.336 149.333 122.264 149.333 111C149.333 92.4187 156.523 74.9893 169.6 61.9333C182.677 48.8773 200.085 41.6666 218.667 41.6666H293.333C331.563 41.6666 362.667 72.7706 362.667 111C362.667 122.264 359.957 133.336 354.837 143C351.979 148.44 346.432 151.533 340.693 151.533Z"
        />
        <path
          d="M219.157 68.3333C210.325 68.3333 203.157 61.1653 203.157 52.3333V16.9413C203.157 8.10931 210.325 0.941315 219.157 0.941315C227.989 0.941315 235.157 8.10931 235.157 16.9413V52.3333C235.157 61.1653 227.989 68.3333 219.157 68.3333Z"
        />
        <path
          d="M293.824 68.3333C284.992 68.3333 277.824 61.1653 277.824 52.3333V16.9413C277.824 8.10931 284.992 0.941315 293.824 0.941315C302.656 0.941315 309.824 8.10931 309.824 16.9413V52.3333C309.824 61.1653 302.656 68.3333 293.824 68.3333Z"
        />
        <path
          d="M256 404.333C247.168 404.333 240 397.165 240 388.333V228.333C240 219.501 247.168 212.333 256 212.333C264.832 212.333 272 219.501 272 228.333V388.333C272 397.165 264.832 404.333 256 404.333Z"
        />
        <path
          d="M496 324.333H416C407.168 324.333 400 317.165 400 308.333C400 299.501 407.168 292.333 416 292.333H496C504.832 292.333 512 299.501 512 308.333C512 317.165 504.832 324.333 496 324.333Z"
        />
        <path
          d="M96 324.333H16C7.168 324.333 0 317.165 0 308.333C0 299.501 7.168 292.333 16 292.333H96C104.832 292.333 112 299.501 112 308.333C112 317.165 104.832 324.333 96 324.333Z"
        />
        <path
          d="M37.3333 489.667C32.448 489.667 27.6267 487.448 24.4693 483.203C19.2 476.099 20.672 466.093 27.776 460.824L96.6827 409.624C103.765 404.376 113.792 405.827 119.061 412.931C124.331 420.035 122.859 430.04 115.755 435.309L46.848 486.509C44.0107 488.643 40.6613 489.667 37.3333 489.667Z"
        />
        <path
          d="M405.781 210.2C400.896 210.2 396.075 207.981 392.917 203.736C387.648 196.632 389.12 186.627 396.224 181.357L465.131 130.157C472.213 124.909 482.24 126.36 487.509 133.464C492.779 140.568 491.307 150.573 484.203 155.843L415.296 207.043C412.437 209.176 409.088 210.2 405.781 210.2Z"
        />
        <path
          d="M474.667 489.667C471.339 489.667 467.989 488.643 465.131 486.509L396.224 435.309C389.12 430.04 387.648 420.013 392.917 412.931C398.208 405.827 408.235 404.397 415.296 409.624L484.203 460.824C491.307 466.093 492.779 476.12 487.509 483.203C484.373 487.448 479.552 489.667 474.667 489.667Z"
        />
        <path
          d="M106.219 210.2C102.891 210.2 99.5413 209.176 96.6827 207.043L27.776 155.843C20.6933 150.573 19.2213 140.547 24.4907 133.464C29.76 126.36 39.808 124.931 46.8693 130.157L115.776 181.357C122.88 186.627 124.352 196.653 119.083 203.736C115.947 207.96 111.104 210.2 106.219 210.2Z"
        />
      </svg>