<svg
  version="1.1"
  id="Réteg_2"
  xmlns="http://www.w3.org/2000/svg"
  xmlns:xlink="http://www.w3.org/1999/xlink"
  viewBox="0 0 22.3 23.9"
>
  <path
    d="M12.2,23.1c-0.2,0-0.3,0-0.5-0.1c-0.3-0.2-0.4-0.5-0.4-0.8V12.1l-8.7-5C2.3,6.9,2.1,6.6,2.1,6.3
s0.2-0.6,0.4-0.8l9.2-5.3C12,0,12.4,0,12.7,0.2l9.2,5.3c0.3,0.2,0.5,0.5,0.5,0.8v10.6c0,0.3-0.2,0.6-0.5,0.8L12.7,23
C12.5,23.1,12.4,23.1,12.2,23.1z M13.1,12.1v8.5l7.4-4.3V7.8L13.1,12.1z M4.8,6.3l7.4,4.3l7.4-4.3L12.2,2L4.8,6.3z"
  />
  <path
    d="M9.1,23.8c-0.2,0-0.3,0-0.5-0.1L0.4,19C0.2,18.8,0,18.5,0,18.2V8.8C0,8.4,0.2,8.1,0.4,8c0.3-0.2,0.6-0.2,0.9,0
l8.2,4.7c0.3,0.2,0.4,0.5,0.4,0.8v9.4c0,0.3-0.2,0.6-0.4,0.8C9.4,23.8,9.2,23.8,9.1,23.8z M1.8,17.7l6.4,3.7V14l-6.4-3.7V17.7z"
  />
</svg>